<svg width="256" height="256" viewBox="0 0 256 256" fill="none" xmlns="http://www.w3.org/2000/svg">
<g clip-path="url(#clip0_60_4374)">
<path fill-rule="evenodd" clip-rule="evenodd" d="M205.483 143.509V157.195H210.849C209.54 153.956 209.765 156.683 209.494 148.818C209.697 140.807 209.152 143.04 210.849 140.086H203.531C204.529 141.441 205.483 141.062 205.483 143.509Z" fill="white"/>
<path fill-rule="evenodd" clip-rule="evenodd" d="M204.212 156.57V157.206H196.691V152.328C196.775 153.244 199.757 156.418 204.204 156.588" fill="white"/>
<path fill-rule="evenodd" clip-rule="evenodd" d="M200.113 151.818C201.436 149.965 204.417 148.184 204.805 148.366C201.972 147.471 201.872 147.417 200.113 145.948V151.818Z" fill="white"/>
<path fill-rule="evenodd" clip-rule="evenodd" d="M217.369 153.786V140.097H212.006C213.315 143.335 213.09 140.612 213.361 148.476C213.155 156.488 213.702 154.255 212.006 157.206H219.323C218.326 155.851 217.372 156.23 217.372 153.786" fill="white"/>
<path fill-rule="evenodd" clip-rule="evenodd" d="M218.641 140.726V140.086H226.164V144.964C226.077 144.045 223.096 140.875 218.651 140.704" fill="white"/>
<path fill-rule="evenodd" clip-rule="evenodd" d="M222.736 145.474C221.424 147.327 218.424 149.108 218.045 148.924C220.877 149.815 220.98 149.87 222.736 151.341V145.474Z" fill="white"/>
<path fill-rule="evenodd" clip-rule="evenodd" d="M48.0578 92.5908V99.0112H36.3093V106.085H48.0578V112.505H36.3093V125.343H29V92.5908H48.0578Z" fill="white"/>
<path fill-rule="evenodd" clip-rule="evenodd" d="M219.134 92.7778H226.269V125.53H219.134L203.908 105.003V125.525H196.772V92.7778H203.45L219.134 113.863V92.7778ZM187.718 121.01C184.487 124.251 180.509 125.872 175.782 125.872C171.056 125.872 167.081 124.255 163.857 121.023C160.627 117.789 159.012 113.767 159.012 108.957C159.012 104.148 160.623 100.12 163.846 96.8729C167.081 93.6388 171.056 92.0226 175.771 92.0244C180.487 92.0262 184.462 93.6424 187.696 96.8729C190.928 100.105 192.544 104.127 192.544 108.938C192.544 113.75 190.935 117.774 187.718 121.01ZM185.295 108.968C185.295 106.047 184.38 103.555 182.549 101.494C180.719 99.4322 178.471 98.4014 175.806 98.4014C173.138 98.4014 170.889 99.4322 169.061 101.494C167.232 103.555 166.317 106.047 166.315 108.968C166.315 111.888 167.231 114.371 169.061 116.416C170.891 118.461 173.14 119.485 175.806 119.486C178.473 119.486 180.721 118.463 182.549 116.416C184.378 114.369 185.293 111.886 185.295 108.968ZM146.287 92.7778H153.421V125.53H146.287V92.7778ZM133.116 92.7778H140.249V125.53H133.116V112.646H120.403V125.53H113.27V92.7778H120.403V106.461H133.116V92.7778ZM95.2986 98.4475C94.1097 98.4475 93.172 98.7366 92.4855 99.3147C92.1503 99.5935 91.8834 99.9453 91.7054 100.343C91.5273 100.741 91.4428 101.175 91.4583 101.61C91.4508 102.066 91.563 102.516 91.7836 102.915C92.0043 103.314 92.3257 103.648 92.7158 103.884C93.5542 104.444 95.4901 105.108 98.5237 105.876C101.557 106.644 103.912 107.791 105.589 109.318C107.264 110.848 108.102 113.082 108.104 116.02C108.106 118.958 107.031 121.338 104.879 123.161C102.731 124.988 99.9032 125.901 96.3962 125.901C91.3373 125.901 86.7797 123.981 82.7235 120.14L86.9757 114.798C90.4194 117.889 93.6057 119.436 96.5344 119.438C97.8425 119.438 98.8715 119.149 99.6213 118.57C99.9824 118.298 100.273 117.943 100.467 117.535C100.662 117.127 100.756 116.678 100.741 116.226C100.754 115.767 100.652 115.313 100.444 114.904C100.236 114.495 99.929 114.144 99.5508 113.885C98.7595 113.308 97.1894 112.722 94.8406 112.126C91.1223 111.222 88.4013 110.048 86.6776 108.602C84.9539 107.157 84.0903 104.873 84.0867 101.751C84.0867 98.6435 85.1762 96.2459 87.3551 94.5584C89.5341 92.8709 92.2551 92.028 95.5181 92.0298C97.7012 92.0378 99.867 92.4182 101.922 93.1545C103.969 93.8489 105.865 94.9269 107.508 96.3308L103.895 101.673C101.124 99.5243 98.2581 98.4493 95.2986 98.4475ZM64.7525 102.513L60.7279 112.05H68.731L64.7525 102.513ZM74.4006 125.519L71.4194 118.443H58.0286L55.0474 125.519H47.459L61.2808 92.767H68.1862L82.008 125.519H74.4006Z" fill="white"/>
<path d="M219.134 92.7778H226.269V125.53H219.134L203.908 105.003V125.525H196.772V92.7778H203.45L219.134 113.863V92.7778ZM187.718 121.01C184.487 124.251 180.509 125.872 175.782 125.872C171.056 125.872 167.081 124.255 163.857 121.023C160.627 117.789 159.012 113.767 159.012 108.957C159.012 104.148 160.623 100.12 163.846 96.8729C167.081 93.6388 171.056 92.0226 175.771 92.0244C180.487 92.0262 184.462 93.6424 187.696 96.8729C190.928 100.105 192.544 104.127 192.544 108.938C192.544 113.75 190.935 117.774 187.718 121.01ZM185.295 108.968C185.295 106.047 184.38 103.555 182.549 101.494C180.719 99.4322 178.471 98.4014 175.806 98.4014C173.138 98.4014 170.889 99.4322 169.061 101.494C167.232 103.555 166.317 106.047 166.315 108.968C166.315 111.888 167.231 114.371 169.061 116.416C170.891 118.461 173.14 119.485 175.806 119.486C178.473 119.486 180.721 118.463 182.549 116.416C184.378 114.369 185.293 111.886 185.295 108.968ZM146.287 92.7778H153.421V125.53H146.287V92.7778ZM133.116 92.7778H140.249V125.53H133.116V112.646H120.403V125.53H113.27V92.7778H120.403V106.461H133.116V92.7778ZM95.2986 98.4475C94.1097 98.4475 93.172 98.7366 92.4855 99.3147C92.1503 99.5935 91.8834 99.9453 91.7054 100.343C91.5273 100.741 91.4428 101.175 91.4583 101.61C91.4508 102.066 91.563 102.516 91.7836 102.915C92.0043 103.314 92.3257 103.648 92.7158 103.884C93.5542 104.444 95.4901 105.108 98.5237 105.876C101.557 106.644 103.912 107.791 105.589 109.318C107.264 110.848 108.102 113.082 108.104 116.02C108.106 118.958 107.031 121.338 104.879 123.161C102.731 124.988 99.9032 125.901 96.3962 125.901C91.3373 125.901 86.7797 123.981 82.7235 120.14L86.9757 114.798C90.4194 117.889 93.6057 119.436 96.5344 119.438C97.8425 119.438 98.8715 119.149 99.6213 118.57C99.9824 118.298 100.273 117.943 100.467 117.535C100.662 117.127 100.756 116.678 100.741 116.226C100.754 115.767 100.652 115.313 100.444 114.904C100.236 114.495 99.929 114.144 99.5508 113.885C98.7595 113.308 97.1894 112.722 94.8406 112.126C91.1223 111.222 88.4013 110.048 86.6776 108.602C84.9539 107.157 84.0903 104.873 84.0867 101.751C84.0867 98.6435 85.1762 96.2459 87.3551 94.5584C89.5341 92.8709 92.2551 92.028 95.5181 92.0298C97.7012 92.0378 99.867 92.4182 101.922 93.1545C103.969 93.8489 105.865 94.9269 107.508 96.3308L103.895 101.673C101.124 99.5243 98.2581 98.4493 95.2986 98.4475ZM64.7525 102.513L60.7279 112.05H68.731L64.7525 102.513ZM74.4006 125.519L71.4194 118.443H58.0286L55.0474 125.519H47.459L61.2808 92.767H68.1862L82.008 125.519H74.4006Z" stroke="white" stroke-width="0.0596234" stroke-miterlimit="2.61"/>
<path d="M69.3545 156.141H55.6302L53.0095 162.846H45.9902L59.1724 131.562H65.9288L79.1544 162.846H71.9725L69.3545 156.141ZM67.1999 150.645L62.5086 138.666L57.8201 150.645H67.1999Z" fill="white"/>
<path d="M84.7939 161.304C82.3863 159.946 80.3986 157.952 79.0483 155.539C77.6767 152.975 76.959 150.112 76.959 147.204C76.959 144.296 77.6767 141.433 79.0483 138.869C80.3985 136.456 82.3861 134.461 84.7939 133.102C87.111 131.857 89.6798 131.151 92.3081 131.039C94.9363 130.927 97.5559 131.411 99.9707 132.454C102.014 133.387 103.803 134.797 105.188 136.566L100.784 140.859C98.7837 138.414 96.3057 137.192 93.3498 137.192C91.6302 137.163 89.9352 137.603 88.4472 138.466C87.0162 139.311 85.8525 140.542 85.0893 142.019C84.2976 143.632 83.8859 145.406 83.8859 147.203C83.8859 149 84.2976 150.774 85.0893 152.388C85.8488 153.87 87.0131 155.107 88.4472 155.954C89.9352 156.817 91.6302 157.257 93.3498 157.228C96.3057 157.228 98.7837 155.991 100.784 153.518L105.177 157.808C103.799 159.603 101.999 161.031 99.9382 161.965C97.7453 162.94 95.3671 163.427 92.9677 163.393C90.1066 163.429 87.2869 162.708 84.7939 161.304Z" fill="white"/>
<path d="M115.442 137.46H105.979V131.562H131.749V137.46H122.299V162.846H115.442V137.46Z" fill="white"/>
<path d="M139.374 161.28C136.949 159.92 134.946 157.918 133.586 155.493C132.214 152.945 131.496 150.097 131.496 147.203C131.496 144.309 132.214 141.461 133.586 138.913C134.947 136.489 136.95 134.487 139.374 133.127C141.92 131.748 144.77 131.026 147.665 131.026C150.56 131.026 153.409 131.748 155.955 133.127C158.373 134.495 160.374 136.495 161.744 138.913C163.128 141.457 163.854 144.307 163.854 147.203C163.854 150.099 163.128 152.949 161.744 155.493C160.375 157.912 158.374 159.912 155.955 161.28C153.409 162.658 150.56 163.38 147.665 163.38C144.77 163.38 141.92 162.658 139.374 161.28ZM152.41 155.954C153.823 155.1 154.971 153.87 155.725 152.401C156.518 150.788 156.931 149.014 156.931 147.217C156.931 145.419 156.518 143.645 155.725 142.032C154.958 140.56 153.803 139.326 152.384 138.466C150.965 137.605 149.337 137.149 147.677 137.149C146.017 137.149 144.389 137.605 142.97 138.466C141.551 139.326 140.396 140.56 139.629 142.032C138.838 143.646 138.426 145.419 138.426 147.217C138.426 149.014 138.838 150.788 139.629 152.401C140.219 153.49 141.021 154.449 141.99 155.221C142.958 155.993 144.072 156.561 145.265 156.893C146.458 157.225 147.706 157.312 148.933 157.151C150.161 156.99 151.343 156.583 152.41 155.954Z" fill="white"/>
<path d="M183.291 162.846L177.6 154.13H171.293V162.846H164.447V131.562H177.247C179.867 131.562 182.142 132.024 184.071 132.947C185.912 133.791 187.462 135.159 188.53 136.88C189.57 138.576 190.091 140.587 190.091 142.913C190.091 145.238 189.563 147.242 188.508 148.924C187.426 150.63 185.859 151.976 184.009 152.788L190.641 162.846H183.291ZM181.559 138.88C180.486 137.94 178.922 137.471 176.868 137.471H171.293V148.365H176.868C178.926 148.365 180.49 147.888 181.559 146.934C182.629 145.981 183.164 144.64 183.164 142.913C183.164 141.155 182.629 139.81 181.559 138.88Z" fill="white"/>
<path fill-rule="evenodd" clip-rule="evenodd" d="M47.2827 131.428V137.55H36.0139V144.298H47.2827V150.42H36.0139V162.665H29V131.428H47.2827Z" fill="white"/>
</g>
<defs>
<clipPath id="clip0_60_4374">
<rect width="197.296" height="71.38" fill="white" transform="translate(29 92)"/>
</clipPath>
</defs>
</svg>
