<svg width="256" height="256" viewBox="0 0 256 256" fill="none" xmlns="http://www.w3.org/2000/svg"><path d="M144.193 139.393L122.77 101.902L138.16 93L164.8 139.393H144.193Z" fill="white"/><path d="M87.1289 134.14L102.52 125.179L110.663 139.393H90.1155L87.1289 134.14Z" fill="white"/><path d="M117.334 163.311H121.714V145.468H117.334V163.311Z" fill="white"/><path d="M172.227 163.731C167.329 163.731 164.382 161.185 164.223 157.596H168.842C168.842 158.719 169.539 160.363 172.525 160.423C174.516 160.423 175.452 159.24 175.452 158.358C175.333 156.954 173.581 156.834 171.709 156.533C169.837 156.233 168.245 155.892 167.09 155.29C165.616 154.529 164.621 152.885 164.621 151C164.621 147.812 167.368 145.286 171.948 145.286C176.388 145.286 179.195 147.632 179.494 151.12H175.034C174.994 150.178 174.815 148.694 172.187 148.694C170.415 148.694 169.24 149.055 169.141 150.298C169.141 152.123 172.824 152.002 175.691 152.764C178.439 153.466 180.191 155.19 180.191 157.596C180.191 162.027 176.627 163.731 172.227 163.731Z" fill="white"/><path d="M105.17 118.221L120.561 109.279L137.823 139.392H121.715V143.803H117.335V139.372L105.17 118.221Z" fill="white"/><path d="M105.567 163.732C100.469 163.732 96.3281 159.542 96.3281 154.469C96.3281 149.337 100.469 145.287 105.567 145.287C107.498 145.287 109.25 145.808 110.783 146.871V139.393H115.163V163.311H110.783V162.128C109.25 163.13 107.498 163.732 105.567 163.732ZM100.529 154.469C100.529 157.236 102.879 159.542 105.686 159.542C108.434 159.542 110.783 157.236 110.783 154.469C110.783 151.702 108.434 149.337 105.686 149.337C102.879 149.337 100.529 151.702 100.529 154.469Z" fill="white"/><path d="M137.941 139.393H142.262V163.311H137.941V162.128C136.468 163.13 134.656 163.732 132.665 163.732C127.628 163.732 123.486 159.542 123.486 154.469C123.486 149.337 127.628 145.287 132.665 145.287C134.656 145.287 136.408 145.808 137.941 146.871V139.393ZM127.747 154.469C127.747 157.236 130.097 159.542 132.785 159.542C135.592 159.542 137.941 157.236 137.941 154.469C137.941 151.702 135.592 149.337 132.785 149.337C130.097 149.337 127.747 151.702 127.747 154.469Z" fill="white"/><path d="M152.915 163.731C147.898 163.731 143.736 159.541 143.736 154.468C143.736 149.336 147.898 145.286 152.915 145.286C154.846 145.286 156.658 145.807 158.132 146.87V145.447H162.512V163.31H158.132V162.127C156.658 163.129 154.906 163.731 152.915 163.731ZM147.997 154.468C147.997 157.235 150.347 159.541 153.094 159.541C155.842 159.541 158.132 157.235 158.132 154.468C158.132 151.702 155.842 149.336 153.094 149.336C150.347 149.336 147.997 151.702 147.997 154.468Z" fill="white"/><path d="M80.221 154.468C80.221 157.235 82.5704 159.541 85.3181 159.541C88.1254 159.541 90.4749 157.235 90.4749 154.468C90.4749 151.702 88.1254 149.336 85.3181 149.336C82.5704 149.336 80.221 151.702 80.221 154.468ZM85.1986 163.731C80.1613 163.731 76 159.541 76 154.468C76 149.336 80.1613 145.286 85.1986 145.286C87.1299 145.286 88.9418 145.807 90.4749 146.87V145.447H94.7954V163.31H90.4749V162.127C89.0015 163.129 87.1897 163.731 85.1986 163.731Z" fill="white"/></svg>