<svg width="256" height="256" viewBox="0 0 256 256" fill="none" xmlns="http://www.w3.org/2000/svg"><mask id="mask0_60_4402" style="mask-type:luminance" maskUnits="userSpaceOnUse" x="53" y="107" width="36" height="44"><path d="M88.1336 107H53.9844V151H88.1336V107Z" fill="white"/></mask><g mask="url(#mask0_60_4402)"><path d="M83.9884 151C86.2786 151 88.1351 148.905 88.1351 146.321C88.1351 143.737 86.2786 141.643 83.9884 141.643C81.6983 141.643 79.8418 143.737 79.8418 146.321C79.8418 148.905 81.6983 151 83.9884 151Z" fill="white"/><path d="M82.3295 119.448C81.8099 120.406 81.1635 121.534 80.3634 122.844C79.1999 124.666 77.9193 126.372 76.5387 127.949C73.7994 131.006 71.2456 132.947 71.2456 132.947V132.927C68.1087 135.333 64.9499 135.999 63.4449 134.306C61.5033 132.124 63.0546 126.84 66.9062 122.505C68.8234 120.351 70.948 118.834 72.8384 118.124C73.1043 118.053 73.3043 117.783 73.3043 117.461C73.3043 117.084 73.0335 116.778 72.6994 116.778C72.6091 116.778 72.5238 116.8 72.4481 116.839C69.1576 118.438 65.6743 121.11 62.501 124.682C58.1981 129.52 55.3662 134.994 54.3807 139.706H54.3734C53.5709 143.531 53.988 146.856 55.8296 148.925C59.9373 153.546 69.5771 150.191 77.3607 141.437C77.5461 141.228 77.7364 141.007 77.9266 140.779C79.4756 138.963 80.822 137.064 81.9416 135.162C82.0856 134.936 82.2294 134.705 82.3758 134.474C86.9689 126.317 88.7227 116.721 87.6372 107.463C87.5665 106.863 86.8201 106.849 86.6908 107.435C85.7297 111.739 84.2467 115.779 82.3295 119.451V119.448Z" fill="white"/></g><path d="M173.434 123.883C173.324 123.552 173.379 123.221 173.598 122.891C173.844 122.56 174.144 122.395 174.5 122.395H180.569C180.952 122.395 181.212 122.491 181.349 122.684C181.513 122.849 181.622 123.001 181.677 123.138L183.809 127.437L187.787 123.138C187.897 123.001 188.061 122.849 188.28 122.684C188.498 122.491 188.813 122.395 189.223 122.395H195.743C196.181 122.395 196.441 122.587 196.523 122.973C196.605 123.331 196.523 123.648 196.277 123.924L187.952 133.141L192.222 141.987C192.387 142.345 192.373 142.689 192.182 143.02C192.017 143.323 191.703 143.475 191.238 143.475H185.004C184.676 143.475 184.43 143.392 184.266 143.227C184.129 143.061 184.02 142.91 183.938 142.772C180.673 136.134 176.744 130.784 173.434 123.883Z" fill="white"/><path d="M109.894 143.881C108.418 143.881 107.16 143.647 106.121 143.179C105.109 142.683 104.357 142.035 103.865 141.236L103.619 142.393C103.565 142.697 103.414 142.958 103.168 143.179C102.922 143.372 102.649 143.468 102.348 143.468H96.5653C96.2646 143.468 96.0322 143.372 95.8681 143.179C95.7041 142.958 95.6494 142.697 95.7041 142.393L101.446 115.196C101.5 114.893 101.651 114.645 101.897 114.452C102.143 114.231 102.416 114.121 102.717 114.121H109.033C109.306 114.121 109.525 114.231 109.689 114.452C109.88 114.645 109.949 114.893 109.894 115.196L108.048 123.752C108.869 123.091 109.716 122.567 110.591 122.181C111.493 121.768 112.573 121.561 113.831 121.561C115.116 121.561 116.251 121.768 117.235 122.181C118.219 122.595 119.026 123.215 119.655 124.041C120.311 124.84 120.748 125.832 120.967 127.017C121.213 128.202 121.199 129.566 120.926 131.109C120.844 131.688 120.748 132.212 120.639 132.68C120.53 133.148 120.406 133.686 120.27 134.292C119.723 136.441 118.957 138.233 117.973 139.665C116.989 141.098 115.813 142.159 114.446 142.848C113.107 143.537 111.589 143.881 109.894 143.881ZM108.048 137.433C108.759 137.433 109.347 137.296 109.812 137.02C110.277 136.717 110.646 136.304 110.919 135.78C111.22 135.256 111.48 134.678 111.698 134.044C111.835 133.631 111.945 133.19 112.027 132.721C112.136 132.253 112.218 131.812 112.273 131.399C112.355 130.737 112.355 130.159 112.273 129.663C112.218 129.139 112.027 128.739 111.698 128.464C111.37 128.161 110.851 128.009 110.14 128.009C109.484 128.009 108.91 128.147 108.418 128.423C107.925 128.698 107.529 129.056 107.228 129.497C106.927 129.938 106.695 130.448 106.531 131.027C106.367 131.605 106.23 132.115 106.121 132.556C106.039 132.997 105.957 133.52 105.875 134.127C105.793 134.733 105.793 135.284 105.875 135.78C105.957 136.276 106.162 136.676 106.49 136.979C106.845 137.282 107.365 137.433 108.048 137.433Z" fill="white"/><path d="M132.763 143.475C132.462 143.475 132.229 143.378 132.065 143.185C131.901 142.965 131.847 142.703 131.901 142.4L135.689 124.751C135.744 124.448 135.894 124.199 136.141 124.007C136.414 123.786 136.701 123.676 137.002 123.676H143.071C143.372 123.676 143.605 123.786 143.769 124.007C143.933 124.199 143.987 124.448 143.933 124.751L140.104 142.4C140.049 142.703 139.899 142.965 139.652 143.185C139.406 143.378 139.133 143.475 138.832 143.475H132.763ZM137.518 121.981C137.217 121.981 136.985 121.885 136.821 121.692C136.657 121.471 136.602 121.209 136.657 120.906L137.91 115.234C137.965 114.931 138.115 114.669 138.361 114.449C138.634 114.228 138.922 114.118 139.222 114.118H145.169C145.442 114.118 145.661 114.228 145.825 114.449C145.989 114.669 146.044 114.931 145.989 115.234L144.695 120.906C144.668 121.209 144.517 121.471 144.244 121.692C143.998 121.885 143.724 121.981 143.424 121.981H137.518Z" fill="white"/><path d="M144.239 143.475C143.938 143.475 143.706 143.379 143.542 143.186C143.378 142.966 143.323 142.704 143.378 142.401L147.438 123.056C147.493 122.753 147.643 122.505 147.889 122.312C148.163 122.092 148.45 121.982 148.75 121.982H154.697C154.998 121.982 155.216 122.092 155.353 122.312C155.517 122.505 155.572 122.753 155.517 123.056L155.23 124.544C156.105 123.718 157.13 123.015 158.306 122.436C159.482 121.858 160.808 121.568 162.284 121.568C163.924 121.568 165.292 121.913 166.385 122.602C167.506 123.291 168.285 124.324 168.723 125.702C169.188 127.08 169.201 128.816 168.764 130.91L166.303 142.401C166.248 142.704 166.098 142.966 165.852 143.186C165.606 143.379 165.333 143.475 165.032 143.475H158.552C158.251 143.475 158.019 143.379 157.855 143.186C157.691 142.966 157.636 142.704 157.691 142.401L160.028 131.199C160.247 130.152 160.192 129.367 159.864 128.843C159.564 128.292 158.935 128.016 157.978 128.016C157.048 128.016 156.255 128.292 155.599 128.843C154.97 129.394 154.547 130.18 154.328 131.199L151.949 142.401C151.895 142.704 151.744 142.966 151.498 143.186C151.252 143.379 150.979 143.475 150.678 143.475H144.239Z" fill="white"/><path d="M169.788 143.474C169.487 143.474 169.255 143.378 169.091 143.185C168.927 142.964 168.872 142.703 168.927 142.399L170.239 136.241C170.294 135.965 170.444 135.717 170.69 135.497C170.964 135.276 171.237 135.166 171.51 135.166H177.621C177.922 135.166 178.141 135.276 178.277 135.497C178.442 135.717 178.496 135.965 178.442 136.241L177.17 142.399C177.115 142.703 176.965 142.964 176.719 143.185C176.473 143.378 176.199 143.474 175.899 143.474H169.788Z" fill="white"/><path d="M121.73 143.475C121.434 143.475 121.206 143.38 121.045 143.191C120.883 142.974 120.83 142.717 120.883 142.419L126.757 115.181C126.811 114.883 126.959 114.64 127.201 114.45C127.443 114.233 127.711 114.125 128.007 114.125H133.973C134.269 114.125 134.497 114.233 134.659 114.45C134.847 114.64 134.914 114.883 134.86 115.181L128.946 142.419C128.892 142.717 128.744 142.974 128.502 143.191C128.261 143.38 127.992 143.475 127.696 143.475H121.73Z" fill="white"/></svg>