<svg width="256" height="256" viewBox="0 0 256 256" fill="none" xmlns="http://www.w3.org/2000/svg">
<g clip-path="url(#clip0_280_1895)">
<path d="M77.8187 127.637C77.8187 131.198 74.9699 134.046 71.4089 134.046C67.8479 134.046 64.9991 131.198 64.9991 127.637C64.9991 124.076 67.8479 121.227 71.4089 121.227H77.8187V127.637ZM84.9408 101.285H77.8187V114.247C75.3972 114.247 72.9758 114.247 71.4089 114.247C64.002 114.247 58.0195 120.23 58.0195 127.637C58.0195 135.044 64.002 141.026 71.4089 141.026C78.8158 141.026 84.7983 135.044 84.7983 127.637C84.7983 123.933 84.7983 114.247 84.7983 114.247L84.9408 101.285Z" fill="white"/>
<path d="M155.735 134.045C159.296 134.045 162.145 131.196 162.145 127.635C162.145 124.074 159.296 121.226 155.735 121.226C152.174 121.226 149.325 124.074 149.325 127.635C149.468 131.196 152.317 134.045 155.735 134.045ZM142.488 127.635C142.488 120.229 148.471 114.246 155.878 114.246C163.285 114.246 169.267 120.229 169.267 127.635C169.267 135.042 163.285 141.025 155.878 141.025C148.471 141.025 142.488 135.042 142.488 127.635Z" fill="white"/>
<path d="M191.63 127.635C191.63 124.217 188.781 121.368 185.362 121.368C181.944 121.368 179.095 124.217 179.095 127.635C179.095 129.345 179.095 140.455 179.095 140.455C175.534 140.455 172.115 140.455 172.115 140.455C172.115 140.455 172.115 131.339 172.115 127.635C172.115 120.229 178.098 114.246 185.505 114.246C192.912 114.246 198.894 120.229 198.894 127.635C198.894 131.339 198.894 140.455 198.894 140.455C198.894 140.455 195.475 140.455 191.914 140.455C191.63 140.455 191.63 129.345 191.63 127.635Z" fill="white"/>
<path d="M126.108 123.079C125.111 122.367 125.395 121.227 127.105 120.8C129.241 120.23 132.945 120.657 136.078 122.082L139.355 117.524C137.93 116.384 134.797 114.817 130.238 114.532C130.238 114.532 122.547 113.535 119.413 119.375C119.413 119.375 116.707 124.788 122.119 128.207C125.395 130.201 131.093 131.055 132.945 131.91C134.369 132.765 133.942 134.332 131.805 134.759C128.102 135.614 123.259 133.477 121.692 132.337L118.273 137.038C120.552 138.747 123.401 140.314 127.959 141.026C127.959 141.026 135.224 142.308 139.212 137.323C139.924 136.468 143.2 130.343 136.648 126.782C133.23 124.931 127.817 124.076 126.108 123.079Z" fill="white"/>
<path d="M93.3451 145.584C93.6299 145.726 96.9061 148.005 100.04 148.005C107.732 148.147 108.159 140.171 108.159 138.319C106.734 139.886 103.743 140.883 101.891 140.883C94.4846 140.883 88.6445 135.185 88.6445 127.778C88.6445 124.075 88.6445 114.816 88.6445 114.816C88.6445 114.816 92.0631 114.816 95.6241 114.816C95.6241 114.816 95.6241 126.212 95.6241 127.778C95.6241 131.197 98.4729 134.046 101.891 134.046C105.31 134.046 108.159 131.197 108.159 127.778C108.159 126.354 108.159 114.816 108.159 114.816C111.72 114.816 115.138 114.816 115.138 114.816V127.778C115.138 139.316 115.708 151.139 104.455 153.845C96.0514 155.839 90.0689 150.569 89.6416 150.284L93.3451 145.584Z" fill="white"/>
</g>
<defs>
<clipPath id="clip0_280_1895">
<rect width="141.016" height="53.7" fill="white" transform="translate(57.8789 101)"/>
</clipPath>
</defs>
</svg>
