<svg width="256" height="256" viewBox="0 0 256 256" fill="none" xmlns="http://www.w3.org/2000/svg"><g clip-path="url(#clip0_280_1898)"><path d="M72.7969 140.852L72.3334 143.923H50.1602C51.0776 141.798 51.0197 140.6 51.0197 139.065V117.954C51.0197 116.467 51.0776 115.163 50.1602 113.096H56.8044H71.7926L71.8312 116.225C71.4256 116.061 71.0972 115.916 70.7978 115.781C69.9963 115.482 68.9823 115.202 67.9296 115.211C66.2493 115.211 59.1994 115.211 56.0704 115.211V127.283H69.9866L69.301 129.659H56.0704V141.74C58.6296 141.74 66.8094 141.74 68.6153 141.74C70.7302 141.779 72.8355 140.581 72.8355 140.581L72.7776 140.842C72.7776 140.852 72.7873 140.852 72.7969 140.852ZM106.173 143.923C106.472 142.406 106.472 140.262 106.231 138.514L104.26 123.99L93.5022 143.913H91.4549L80.5228 123.092L78.3982 138.833C78.1664 140.649 78.0988 142.947 78.2919 143.923H74.4483C75.1919 142.348 75.3754 141.663 75.7231 139.075L79.1997 113.096H80.967L93.7243 137.336L106.472 113.096H107.805L111.397 139.017C111.755 141.595 112.025 142.339 112.74 143.923H106.173ZM138.554 143.923L133.435 132.633H123.141L118.09 143.923H117.655H114.092H114.072C115.347 142.339 115.782 141.605 116.68 139.635L128.616 113.096H129.959L141.702 138.891C142.957 141.412 143.546 142.194 145.343 143.923H138.554ZM170.761 143.923L165.642 132.633H155.348L150.297 143.923H149.872H146.299H146.279C147.554 142.339 147.989 141.605 148.887 139.635L160.823 113.096H162.166L173.919 138.891C175.174 141.412 175.763 142.194 177.56 143.923H170.761ZM199.945 143.942C196.865 141.132 192.876 137.404 187.883 131.494C186.454 129.823 185.45 129.61 184.803 129.572V139.065C184.803 140.591 184.803 141.798 185.672 143.923H178.892C179.81 141.798 179.752 140.6 179.752 139.065V117.935C179.752 116.447 179.81 115.144 178.892 113.077H185.536C190.075 113.077 200.805 112.671 200.805 121.537C200.805 126.221 197.087 128.741 192.722 129.379L191.427 129.504C191.427 129.504 205.585 143.343 206.193 143.942H199.945ZM191.92 127.611L191.91 127.621C194.769 126.539 195.735 123.826 195.638 121.527C195.532 119.316 194.537 114.506 184.812 114.893V128.036C184.812 128.036 190.259 128.336 191.785 127.669C191.872 127.631 191.92 127.611 191.92 127.611ZM156.333 130.48H164.648L160.456 121.276L156.333 130.48ZM124.135 130.48H132.45L128.259 121.276L124.135 130.48Z" fill="white"/></g><defs><clipPath id="clip0_280_1898"><rect width="156.159" height="31" fill="white" transform="translate(50.1113 113)"/></clipPath></defs></svg>