<svg width="256" height="256" viewBox="0 0 256 256" fill="none" xmlns="http://www.w3.org/2000/svg">
<path d="M128.575 143.601L94.5059 109.525L112.031 92H145.114L162.651 109.525L128.575 143.601ZM99.2573 109.525L128.575 138.85L157.9 109.525L143.722 95.3595H113.423L99.2573 109.525Z" fill="white"/>
<path d="M133.939 111.796V112.866H130.143V129.163H133.939V130.233H122.949V129.163H126.53V112.866H122.949V111.796H126.53V109.512C126.53 101.553 129.833 98.2002 134.306 98.2002C136.122 98.2002 138.216 99.0353 138.216 101.224C138.179 101.652 137.98 102.049 137.66 102.334C137.34 102.62 136.924 102.773 136.495 102.762C135.229 102.762 134.597 101.876 134.597 100.617C134.597 100.105 134.97 100.06 134.97 99.4529C134.97 99.2251 134.179 99.1745 133.85 99.1745C131.617 99.1745 130.174 101.876 130.174 106.533V111.796H133.939Z" fill="white"/>
<path d="M141.873 112.258C141.874 112.592 141.776 112.92 141.591 113.198C141.406 113.477 141.143 113.694 140.834 113.823C140.526 113.952 140.186 113.986 139.858 113.922C139.53 113.858 139.228 113.697 138.991 113.461C138.754 113.225 138.593 112.924 138.527 112.596C138.461 112.268 138.494 111.929 138.622 111.619C138.75 111.31 138.966 111.046 139.244 110.86C139.522 110.674 139.849 110.575 140.183 110.575C140.63 110.575 141.059 110.752 141.376 111.068C141.692 111.383 141.871 111.811 141.873 112.258Z" fill="white"/>
<path d="M96.2828 155.153V155.666H94.4671V163.511H96.2828V164.023H91V163.511H92.7209V155.666H91V155.153H92.7209V154.059C92.7074 153.228 92.8009 152.398 92.9993 151.591C93.1509 150.983 93.4171 150.41 93.7838 149.902C94.0923 149.483 94.5013 149.148 94.9732 148.928C95.4398 148.715 95.9473 148.607 96.46 148.611C96.6882 148.611 96.9156 148.638 97.137 148.694C97.3513 148.74 97.5552 148.826 97.738 148.947C97.914 149.063 98.0629 149.217 98.1745 149.396C98.2927 149.599 98.3518 149.832 98.3454 150.067C98.3483 150.172 98.325 150.276 98.2775 150.37C98.23 150.464 98.1598 150.544 98.0733 150.604C97.9162 150.733 97.7198 150.805 97.5166 150.807C97.3878 150.815 97.2589 150.793 97.1402 150.743C97.0215 150.692 96.9164 150.615 96.8333 150.516C96.67 150.305 96.587 150.042 96.5992 149.776C96.5936 149.729 96.5987 149.683 96.614 149.639C96.6294 149.595 96.6546 149.555 96.6878 149.522C96.7554 149.436 96.7871 149.328 96.7763 149.219C96.7763 149.156 96.7067 149.124 96.5612 149.105H96.2386C95.9606 149.122 95.6934 149.219 95.4689 149.384C95.2445 149.549 95.0724 149.775 94.9732 150.035C94.6139 150.855 94.4494 151.747 94.4924 152.642V155.172L96.2828 155.153Z" fill="white"/>
<path d="M106.286 162.479C106.267 162.974 106.058 163.443 105.703 163.789C105.529 163.96 105.323 164.095 105.096 164.185C104.868 164.276 104.626 164.319 104.381 164.314C104.2 164.325 104.019 164.297 103.849 164.234C103.679 164.171 103.524 164.073 103.394 163.947C103.143 163.668 102.98 163.32 102.926 162.948C102.563 163.408 102.088 163.767 101.547 163.991C101.025 164.205 100.466 164.315 99.9019 164.314C99.5632 164.317 99.2254 164.278 98.8959 164.2C98.5981 164.134 98.3163 164.009 98.0671 163.833C97.8251 163.658 97.6278 163.428 97.4914 163.163C97.3419 162.836 97.2704 162.478 97.2826 162.119C97.2909 161.614 97.4398 161.122 97.7125 160.697C97.9852 160.272 98.3709 159.932 98.8263 159.715C100.091 159.094 101.493 158.805 102.901 158.873V156.747C102.914 156.517 102.863 156.287 102.755 156.083C102.664 155.919 102.539 155.777 102.388 155.665C102.232 155.561 102.059 155.486 101.876 155.444C101.683 155.399 101.486 155.376 101.287 155.374C101.174 155.374 100.996 155.374 100.762 155.412C100.53 155.434 100.299 155.474 100.073 155.533C99.8513 155.585 99.6383 155.668 99.44 155.779C99.3646 155.818 99.3008 155.875 99.2552 155.946C99.2096 156.018 99.1839 156.1 99.1806 156.184C99.1806 156.229 99.1806 156.273 99.2818 156.317C99.3831 156.361 99.4274 156.418 99.5159 156.488C99.6144 156.561 99.6945 156.657 99.75 156.766C99.8234 156.904 99.8583 157.059 99.8512 157.215C99.8574 157.34 99.8387 157.465 99.7963 157.582C99.754 157.699 99.6888 157.807 99.6045 157.899C99.5171 157.986 99.4122 158.055 99.2967 158.1C99.1812 158.144 99.0576 158.164 98.9339 158.158C98.8032 158.165 98.6727 158.141 98.5529 158.089C98.4331 158.036 98.3274 157.956 98.2443 157.854C98.0712 157.636 97.9835 157.361 97.9975 157.083C98.0083 156.845 98.0732 156.614 98.1873 156.406C98.3337 156.13 98.5389 155.891 98.7884 155.703C99.1222 155.46 99.4942 155.274 99.8892 155.153C100.438 154.994 101.007 154.919 101.578 154.932C102.172 154.91 102.765 154.98 103.337 155.14C103.681 155.243 103.993 155.433 104.242 155.691C104.427 155.887 104.545 156.138 104.577 156.406C104.609 156.645 104.626 156.886 104.628 157.127V162.454C104.619 162.712 104.636 162.971 104.679 163.226C104.717 163.403 104.856 163.485 105.096 163.485C105.208 163.484 105.317 163.448 105.408 163.384C105.499 163.32 105.569 163.229 105.609 163.125C105.716 162.921 105.807 162.71 105.881 162.492L106.286 162.479ZM102.901 159.316C102.492 159.318 102.085 159.346 101.68 159.398C101.245 159.447 100.819 159.556 100.414 159.721C100.009 159.876 99.6469 160.125 99.3578 160.448C99.076 160.813 98.928 161.263 98.9384 161.724C98.9487 162.185 99.1169 162.628 99.4147 162.979C99.5823 163.14 99.7812 163.264 99.9988 163.345C100.216 163.425 100.448 163.46 100.68 163.447C100.996 163.453 101.311 163.404 101.61 163.302C101.904 163.185 102.172 163.013 102.401 162.796C102.519 162.675 102.625 162.544 102.717 162.403C102.865 162.101 102.926 161.764 102.894 161.429L102.901 159.316Z" fill="white"/>
<path d="M113.043 155.154V157.684H112.55C112.415 157.082 112.125 156.526 111.708 156.071C111.35 155.739 110.905 155.518 110.424 155.434C109.944 155.35 109.449 155.406 109 155.596C108.759 155.724 108.544 155.895 108.368 156.103C108.231 156.264 108.131 156.455 108.077 156.659C108.043 156.782 108.02 156.907 108.007 157.033C108.003 157.182 108.031 157.331 108.089 157.469C108.188 157.641 108.342 157.774 108.526 157.849C108.872 158.016 109.235 158.147 109.608 158.241C110.095 158.374 110.765 158.532 111.613 158.709C112.298 158.796 112.936 159.105 113.429 159.589C113.796 160.068 113.98 160.662 113.948 161.265C113.949 161.7 113.861 162.131 113.688 162.531C113.527 162.897 113.29 163.225 112.992 163.492C112.697 163.767 112.351 163.982 111.974 164.125C111.569 164.274 111.14 164.346 110.708 164.34C110.227 164.339 109.75 164.244 109.304 164.062C108.858 163.879 108.459 163.601 108.133 163.246L107.64 164.049H107.146V161.082H107.659C107.855 161.84 108.255 162.529 108.817 163.075C109.09 163.338 109.414 163.543 109.768 163.679C110.122 163.815 110.5 163.879 110.879 163.866C111.278 163.864 111.67 163.759 112.016 163.56C112.362 163.362 112.65 163.077 112.853 162.733C112.988 162.492 113.056 162.219 113.049 161.942C113.049 161.506 112.771 161.17 112.214 160.924C111.484 160.62 110.731 160.377 109.962 160.196L108.899 159.924C108.584 159.844 108.284 159.711 108.013 159.532C107.749 159.36 107.531 159.125 107.381 158.848C107.217 158.483 107.141 158.084 107.159 157.684C107.166 157.403 107.21 157.125 107.292 156.856C107.389 156.529 107.548 156.224 107.76 155.957C108.015 155.654 108.329 155.406 108.684 155.23C109.268 154.963 109.918 154.871 110.553 154.966C111.188 155.06 111.783 155.336 112.265 155.761L112.67 155.128L113.043 155.154Z" fill="white"/>
<path d="M115.87 149.106H114.637V148.593H115.143C115.56 148.593 115.978 148.593 116.408 148.549C116.833 148.52 117.255 148.467 117.674 148.391V157.286C117.945 156.634 118.35 156.045 118.863 155.559C119.409 155.109 120.105 154.883 120.812 154.926C121.063 154.93 121.315 154.949 121.565 154.983C121.874 155.021 122.173 155.12 122.444 155.274C122.741 155.436 122.992 155.671 123.172 155.957C123.392 156.32 123.498 156.742 123.475 157.166V163.493H124.684V164.005H120.552V163.493H121.716V157.444C121.723 157.117 121.693 156.79 121.628 156.47C121.583 156.258 121.488 156.06 121.349 155.894C121.228 155.765 121.072 155.673 120.9 155.628C120.706 155.58 120.506 155.557 120.305 155.559C119.923 155.56 119.551 155.681 119.243 155.907C118.907 156.153 118.618 156.458 118.388 156.805C118.138 157.181 117.945 157.593 117.819 158.026C117.692 158.436 117.624 158.862 117.617 159.292V163.461H118.825V163.973H114.637V163.461H115.87V149.106Z" fill="white"/>
<path d="M125.645 164.024V163.511H127.163V155.673H125.645V155.154H126.385C126.802 155.154 127.226 155.154 127.65 155.154C128.077 155.131 128.501 155.067 128.915 154.964V163.543H130.238V164.056L125.645 164.024ZM126.91 150.314C126.907 150.171 126.935 150.03 126.992 149.899C127.049 149.768 127.133 149.65 127.239 149.555C127.336 149.454 127.452 149.375 127.58 149.321C127.708 149.266 127.846 149.238 127.985 149.238C128.273 149.246 128.547 149.358 128.757 149.555C128.873 149.644 128.967 149.759 129.032 149.891C129.097 150.023 129.13 150.167 129.131 150.314C129.136 150.471 129.11 150.628 129.054 150.775C128.997 150.921 128.911 151.055 128.802 151.168C128.696 151.277 128.569 151.364 128.429 151.421C128.288 151.479 128.137 151.507 127.985 151.503C127.837 151.509 127.689 151.481 127.553 151.421C127.416 151.361 127.296 151.27 127.201 151.155C127.005 150.919 126.902 150.62 126.91 150.314Z" fill="white"/>
<path d="M135.129 154.932C135.704 154.929 136.273 155.047 136.799 155.28C137.323 155.503 137.793 155.835 138.179 156.254C138.576 156.689 138.891 157.193 139.109 157.741C139.573 158.944 139.573 160.277 139.109 161.48C138.892 162.032 138.577 162.54 138.179 162.979C137.79 163.398 137.321 163.734 136.799 163.966C136.275 164.2 135.707 164.321 135.132 164.321C134.558 164.321 133.99 164.2 133.465 163.966C132.944 163.734 132.474 163.398 132.086 162.979C131.254 162.058 130.793 160.861 130.793 159.62C130.793 158.378 131.254 157.181 132.086 156.26C132.476 155.844 132.947 155.511 133.471 155.284C133.994 155.057 134.558 154.939 135.129 154.938M135.129 155.381C134.658 155.353 134.193 155.497 133.82 155.786C133.512 156.064 133.277 156.414 133.136 156.804C132.983 157.245 132.898 157.705 132.883 158.171C132.883 158.671 132.845 159.158 132.845 159.62C132.845 160.082 132.845 160.588 132.883 161.088C132.898 161.553 132.983 162.014 133.136 162.454C133.277 162.845 133.512 163.194 133.82 163.473C134.208 163.733 134.665 163.872 135.132 163.872C135.6 163.872 136.057 163.733 136.445 163.473C136.753 163.194 136.988 162.845 137.128 162.454C137.282 162.014 137.367 161.553 137.381 161.088C137.381 160.588 137.419 160.094 137.419 159.62C137.419 159.145 137.419 158.671 137.381 158.171C137.367 157.705 137.282 157.245 137.128 156.804C136.988 156.414 136.753 156.064 136.445 155.786C136.07 155.496 135.602 155.352 135.129 155.381Z" fill="white"/>
<path d="M141.286 155.672H140.059V155.153H141.153C141.365 155.154 141.576 155.14 141.786 155.109C141.995 155.109 142.203 155.071 142.418 155.039C142.634 155.008 142.836 154.976 143.051 154.932V157.285H143.095C143.358 156.643 143.75 156.061 144.247 155.577C144.794 155.128 145.49 154.902 146.196 154.944C146.447 154.948 146.699 154.967 146.948 155.001C147.26 155.037 147.562 155.136 147.834 155.292C148.13 155.456 148.38 155.69 148.562 155.976C148.783 156.339 148.888 156.76 148.865 157.184V163.511H150.074V164.023H145.949V163.511H147.113V157.462C147.123 157.135 147.093 156.808 147.024 156.488C146.982 156.275 146.887 156.077 146.746 155.912C146.624 155.783 146.469 155.691 146.297 155.647C146.102 155.598 145.902 155.575 145.702 155.577C145.32 155.578 144.948 155.7 144.639 155.925C144.306 156.172 144.018 156.476 143.791 156.823C143.541 157.2 143.347 157.611 143.216 158.044C143.091 158.455 143.025 158.881 143.02 159.31V163.479H144.247V163.992H140.059V163.479H141.286V155.672Z" fill="white"/>
<path d="M150.154 155.154H151.477V152.402H152.337C152.619 152.393 152.9 152.365 153.178 152.319V155.166H155.152V155.679H153.178V162.537C153.178 162.638 153.178 162.752 153.178 162.872C153.184 162.985 153.214 163.095 153.267 163.195C153.325 163.303 153.416 163.389 153.526 163.442C153.723 163.53 153.94 163.561 154.153 163.533C154.366 163.506 154.568 163.419 154.735 163.284C154.912 163.113 155.089 162.923 155.273 162.714L155.627 162.961C155.411 163.404 155.049 163.76 154.602 163.967C154.173 164.195 153.696 164.318 153.21 164.328C152.882 164.342 152.555 164.288 152.248 164.169C152.034 164.086 151.847 163.944 151.711 163.758C151.584 163.568 151.504 163.352 151.477 163.125C151.437 162.874 151.418 162.62 151.42 162.366V155.666H150.154V155.154Z" fill="white"/>
<path d="M156.088 155.666V155.153H160.118V155.666H158.929L161.105 162.094H161.149L163.408 155.666H162.041V155.153H165.091V155.666H164.015L160.922 164.314H160.162L157.163 155.666H156.088Z" fill="white"/>
</svg>
