<svg width="256" height="256" viewBox="0 0 256 256" fill="none" xmlns="http://www.w3.org/2000/svg"><path d="M53.5234 121.204C61.0942 115.608 68.423 116.768 71.2988 125.812C71.1891 128.226 70.9698 133.316 70.9697 134.37C70.9697 135.423 71.299 137.992 75.9072 135.688C71.299 114.621 101.252 113.304 104.873 126.471C109.81 125.812 111.127 120.545 117.381 118.57C124.293 117.254 133.274 117.29 137.131 126.471C138.544 126.31 139.544 125.922 142.068 124.166C144.373 119.229 150.956 115.28 159.514 119.888V111H169.718V134.37C170.631 137.636 171.955 137.383 175.313 134.37L183.214 117.583H187.163C195.518 123.352 201.317 128.775 202.634 137.004C204.66 136.783 205.692 136.302 207.242 134.37L212.509 139.637C206.136 145.601 202.615 146.002 196.38 144.574C182.555 149.182 180.58 133.713 192.101 135.029C190.455 131.738 188.809 130.091 186.176 128.116C179.593 149.841 163.793 147.537 160.83 141.612C154.247 149.841 140.752 144.245 140.752 134.37L137.789 135.029C133.18 150.17 110.14 147.536 108.165 134.37L105.531 135.029C101.252 148.195 84.7938 146.879 80.1855 141.612C71.6275 148.524 59.7785 145.562 60.4365 135.688C60.6163 132.991 60.7656 128.774 60.7656 128.774C58.1324 124.825 53.43 126.561 53.5234 128.445V144.574H42.9902V111H53.5234V121.204ZM92.0361 126.801C89.4001 125.483 86.4404 128.115 86.4404 130.42C86.4407 132.725 86.1117 137.004 90.7197 136.675C95.3169 136.346 95.0035 132.426 95.002 132.407C93.3681 130.232 92.7538 128.991 92.0361 126.801ZM124.3 126.801C121.664 125.483 118.703 128.114 118.703 130.42C118.703 132.725 118.375 137.004 122.983 136.675C127.578 136.347 127.267 132.43 127.266 132.407C125.727 131.049 125.109 129.725 124.3 126.801ZM158.966 127.821C156.847 126.061 150.643 125.493 150.955 131.737C151.261 137.848 156.671 136.869 158.833 135.379C159.13 135.174 159.273 134.824 159.284 134.463C159.326 133.12 159.463 130.723 159.308 128.544C159.288 128.266 159.18 127.999 158.966 127.821Z" fill="white"/></svg>