<svg width="256" height="256" viewBox="0 0 256 256" fill="none" xmlns="http://www.w3.org/2000/svg">
<g clip-path="url(#clip0_60_4406)">
<path d="M67.8306 137.83L66.0497 131.711L65.3022 128.415C65.4125 128.387 65.3226 128.167 65.3185 128.134C64.6854 122.909 60.6459 123.496 58.0236 124.394C58.0236 124.394 57.8846 124.524 57.8888 124.353C57.897 124.141 57.901 122.024 57.901 121.453C57.901 121.318 58.0195 121.277 58.0195 121.277C61.2953 119.841 66.0374 119.964 68.9538 121.42C71.143 122.517 72.4174 124.177 73.6224 129.162C73.9532 130.541 74.333 132.437 75.3868 136.557C75.8934 138.536 76.4284 139.274 77.519 139.066C77.6538 139.042 77.6578 139.111 77.6578 139.229C77.6538 140.167 77.6538 141.738 77.6538 141.848C77.6538 142.174 77.6538 142.174 77.5435 142.17C77.4046 142.166 74.5291 142.174 74.5291 142.174C73.2179 142.166 71.6209 142.166 69.546 140.355L67.8306 137.83Z" fill="white"/>
<path d="M67.8271 137.831C67.8761 137.977 67.6637 138.124 67.5248 138.19C62.995 140.763 61.3489 133.14 65.7603 131.671C65.94 131.622 66.0462 131.712 66.0462 131.712L65.2987 128.416C62.9419 128.934 59.2372 129.999 57.6321 131.512C54.0418 134.898 55.5899 140.351 59.5314 141.763C61.733 142.55 66.2831 143.174 69.5425 140.355L67.8271 137.831Z" fill="white"/>
<path d="M98.6193 119.852C101.115 119.852 103.141 118.22 103.141 116.205C103.141 114.19 101.115 112.559 98.6193 112.559C96.1195 112.559 94.0977 114.19 94.0977 116.205C94.0977 118.22 96.1195 119.852 98.6193 119.852Z" fill="white"/>
<path d="M118.8 129.767C118.939 129.73 119.486 129.742 119.441 128.971C119.323 127.005 118.833 125.663 118.257 124.88C117.17 123.408 115.181 123.355 114.156 125.537C113.556 126.809 113.437 129.126 113.519 130.672C113.547 131.154 113.625 131.178 114.066 131.072L114.421 133.98C114.266 134.062 114.074 133.993 114.299 134.592C115.716 138.398 117.75 138.916 120.471 138.761C121.88 138.684 123.456 137.949 124.012 137.66C124.563 137.366 124.478 137.717 124.478 137.925V140.499C124.478 140.915 124.514 141.062 123.779 141.327C120.062 142.685 115.181 143.007 111.391 141.143C108.205 139.577 105.305 135.445 105.554 130.937C105.95 123.762 110.415 119.883 117.109 120.099C122.382 120.271 126.414 124.134 126.904 129.812C126.924 130.048 126.92 130.411 126.695 130.538L118.8 129.767Z" fill="white"/>
<path d="M118.8 129.767C117.869 130.048 114.066 131.072 114.066 131.072L114.422 133.98C114.573 133.895 126.696 130.538 126.696 130.538L118.8 129.767Z" fill="white"/>
<path d="M53.4839 140.51C53.4797 141.493 53.7085 141.868 53.786 142.032C53.8514 142.178 53.6554 142.158 53.6554 142.158H52.1278H45.7599C45.7599 142.158 45.6048 142.166 45.6537 142.032C45.7477 141.766 45.9397 141.289 45.9397 140.51L45.9315 139.49V129.798V127.975C45.9275 127.29 45.5027 125.817 43.8402 125.813C42.4637 125.825 41.1812 127.074 41.1772 128.803V132.421L41.1731 139.641C41.1731 139.641 41.1772 140.473 41.1772 140.51C41.1731 141.493 41.4018 141.868 41.4794 142.032C41.5448 142.178 41.3487 142.158 41.3487 142.158H39.8251H33.4533C33.4533 142.158 33.2981 142.166 33.3471 142.032C33.4411 141.766 33.6289 141.289 33.633 140.51V139.968V129.811V127.987C33.6289 127.298 33.2041 125.829 31.5377 125.821C30.1653 125.834 28.8786 127.082 28.8786 128.811V129.745V139.927L28.8705 140.51C28.8705 141.493 29.0993 141.868 29.1727 142.032C29.2381 142.178 29.0462 142.158 29.0462 142.158H27.5185H21.1507C21.1507 142.158 20.9914 142.166 21.0404 142.032C21.1385 141.766 21.3223 141.289 21.3305 140.51V139.825C21.3305 137.292 21.3264 126.168 21.3223 125.144C21.3305 124.475 21.1181 123.998 21.016 123.737C20.9547 123.602 21.0894 123.541 21.0894 123.541C21.0894 123.541 23.9936 122.24 28.752 120.045C28.801 120.025 28.8828 120.054 28.8786 120.139V122.052V123.696C28.8786 123.786 28.9767 123.835 29.0502 123.757C29.0911 123.717 29.14 123.651 29.2055 123.578C31.8154 119.605 39.9396 118.96 41.218 123.717C41.2425 123.798 41.3324 123.79 41.3855 123.717C42.9947 121.563 44.6082 120.478 47.9247 120.478C54.411 120.478 53.4756 126.001 53.4715 129.403L53.4756 139.49L53.4839 140.51Z" fill="white"/>
<path d="M87.2886 140.527C87.2845 141.506 87.5132 141.885 87.5868 142.048C87.6562 142.195 87.4601 142.175 87.4601 142.175H85.5281H79.1603C79.1603 142.175 79.001 142.179 79.05 142.048C79.144 141.779 79.3318 141.306 79.336 140.527L79.3401 139.939C79.3401 137.414 79.336 126.633 79.336 125.609C79.336 125.038 78.952 123.974 78.8785 123.782C78.8295 123.68 78.9888 123.639 78.9888 123.639C78.9888 123.639 82.428 121.885 87.166 119.695C87.2151 119.674 87.2926 119.703 87.2926 119.789V121.918C87.2926 122.203 87.3213 123.097 87.3213 123.215C87.3213 123.309 87.4192 123.358 87.4887 123.28C87.5296 123.235 87.5827 123.174 87.6439 123.097C89.4125 119.63 92.2226 119.74 94.3589 120.058C94.6325 120.099 94.5957 120.188 94.5223 120.547C94.3834 121.233 93.4398 125.112 93.3582 125.397C93.2927 125.638 93.2274 125.744 92.9375 125.683C90.2539 125.12 87.2926 125.993 87.2926 129.334V129.815C87.2926 132.25 87.2926 138.206 87.2967 139.943L87.2886 140.527Z" fill="white"/>
<path d="M102.847 140.526C102.843 141.505 103.071 141.884 103.145 142.047C103.214 142.194 103.018 142.174 103.018 142.174H101.074H94.7064C94.7064 142.174 94.5471 142.182 94.592 142.047C94.6901 141.778 94.8779 141.305 94.882 140.526L94.8861 140.411V123.875C94.8861 123.467 94.8861 123.463 95.1761 123.332C95.3273 123.263 95.2742 123.287 95.2742 123.287C95.2742 123.287 98.0189 121.933 102.598 119.779C102.647 119.755 102.839 119.788 102.835 119.873C102.835 120.526 102.843 138.694 102.847 140.448V140.526Z" fill="white"/>
<path d="M151.059 138.41C149.152 139.381 146.305 139.695 144.606 137.537C142.915 135.387 142.081 133.507 142.086 130.427C142.09 123.428 146.954 122.51 150.647 124.57V120.972C148.564 119.916 145.815 119.732 143.748 119.948C137.593 120.605 133.998 125.757 133.994 131.618C133.99 138.006 138.075 145.65 151.059 142.098V138.41Z" fill="white"/>
<path d="M161.259 139.715C161.259 139.715 161.231 111.945 161.243 112.087C161.243 112.087 155.504 114.735 152.502 116.167C152.8 116.411 153.429 117.48 153.429 121V129.913C153.433 132.462 153.429 137.349 153.392 141.216C153.388 141.64 153.119 142.232 153.119 142.273H161.79C161.704 142.273 161.259 139.715 161.259 139.715Z" fill="white"/>
<path d="M175.933 138.06C175.982 138.215 175.9 138.264 175.757 138.337C174.769 138.965 173.074 139.104 172.077 138.178C171.138 137.069 170.647 135.8 171.044 134.213C171.358 133.238 172.359 131.537 174.029 131.24L173.494 128.05C173.498 128.107 173.494 128.103 173.327 128.14C172.82 128.266 172.551 128.315 171.673 128.462C169.822 128.768 167.731 129.396 165.991 130.75C161.028 134.601 163.357 140.267 167.388 141.931C169.741 142.902 173.895 143.469 177.326 140.609L175.933 138.06Z" fill="white"/>
<path d="M175.926 138.059L174.084 131.267C174.084 131.267 174.084 131.219 174.023 131.239L173.488 128.049C173.12 122.351 168.537 122.877 165.993 123.827C165.993 123.827 165.85 123.962 165.858 123.782C165.862 123.562 165.87 121.363 165.87 120.772C165.866 120.629 165.989 120.592 165.989 120.592C169.228 119.173 174.178 119.365 177.037 120.796C179.545 122.049 180.791 124.349 181.293 126.328C181.293 126.328 183.544 136.582 183.797 137.692C184.001 138.581 184.581 139.356 185.488 139.352C185.847 139.352 185.896 139.422 185.901 139.793C185.905 140.69 185.909 142.073 185.905 142.265C185.901 142.497 185.884 142.583 185.709 142.583C185.566 142.583 182.596 142.587 182.596 142.587C180.999 142.579 179.684 142.575 177.319 140.609L175.926 138.059Z" fill="white"/>
<path d="M191.93 119.567C194.519 119.567 196.618 117.874 196.618 115.781C196.618 113.693 194.519 112 191.93 112C189.336 112 187.236 113.693 187.236 115.781C187.236 117.874 189.336 119.567 191.93 119.567Z" fill="white"/>
<path d="M196.012 140.527V140.972C196.012 141.616 196.302 142.102 196.371 142.273C196.376 142.293 196.351 142.306 196.351 142.306H194.141H187.377C187.377 142.306 187.349 142.293 187.357 142.273C187.418 142.114 187.712 141.608 187.712 140.972V140.49C187.712 137.859 187.716 124.937 187.716 123.33C187.716 122.934 187.9 122.918 187.9 122.918C187.9 122.918 190.935 121.368 195.877 119.087C195.926 119.063 196.012 119.092 196.008 119.181C196.008 119.863 196.012 138.708 196.012 140.527Z" fill="white"/>
<path d="M213.647 125.521C211.695 125.493 211.205 125.37 210.175 125.733C208.893 126.223 208.011 127.242 207.986 128.797V129.739V140.54V140.973C207.986 141.601 208.268 142.074 208.333 142.241C208.341 142.258 208.317 142.27 208.317 142.27H206.172H199.596C199.596 142.27 199.572 142.258 199.576 142.237C199.637 142.086 199.923 141.593 199.923 140.973V140.508V125.093C199.878 124.51 199.641 123.804 199.572 123.62C199.523 123.518 199.682 123.482 199.682 123.482C199.682 123.482 203.052 121.923 207.855 119.712C207.9 119.688 207.986 119.717 207.982 119.806V121.736C207.982 122.021 208.014 122.931 208.014 123.053C208.014 123.143 208.113 123.192 208.186 123.114C208.227 123.07 208.276 123.008 208.341 122.931C210.277 119.349 213.439 119.802 215.048 120.055C215.326 120.096 215.285 120.186 215.212 120.549C215.069 121.242 214.158 124.942 214.076 125.231C214.007 125.476 213.945 125.529 213.647 125.521Z" fill="white"/>
<path d="M226.892 130.249C227.026 130.208 227.574 130.22 227.529 129.449C227.41 127.483 226.92 126.145 226.344 125.362C225.258 123.885 223.269 123.832 222.244 126.019C221.647 127.287 221.529 129.608 221.61 131.15C221.635 131.631 221.716 131.656 222.154 131.554L222.509 134.458C222.358 134.544 222.162 134.475 222.386 135.074C223.804 138.88 225.842 139.394 228.558 139.243C229.967 139.165 231.544 138.427 232.099 138.138C232.655 137.844 232.569 138.199 232.569 138.407V140.981C232.569 141.393 232.602 141.539 231.871 141.809C228.15 143.163 223.269 143.485 219.482 141.621C216.296 140.059 213.396 135.923 213.641 131.419C214.038 124.24 218.506 120.361 225.197 120.581C230.474 120.753 234.501 124.611 234.991 130.289C235.012 130.526 235.012 130.889 234.787 131.015L226.892 130.249Z" fill="white"/>
<path d="M226.892 130.248C225.961 130.525 222.154 131.553 222.154 131.553L222.51 134.458C222.661 134.376 234.788 131.015 234.788 131.015L226.892 130.248Z" fill="white"/>
</g>
<defs>
<clipPath id="clip0_60_4406">
<rect width="214" height="31" fill="white" transform="translate(21 112)"/>
</clipPath>
</defs>
</svg>
