<svg width="256" height="256" viewBox="0 0 256 256" fill="none" xmlns="http://www.w3.org/2000/svg">
<g clip-path="url(#clip0_280_1892)">
<path d="M175.883 124.347V136.411C175.576 141.193 168.546 141.193 168.239 136.411V124.347H161.59V137.718C161.59 142.234 166.272 145.895 172.036 145.895C177.8 145.895 182.483 142.234 182.483 137.718V124.347H175.883ZM197.505 110.006V145.118H204.191V110.006H197.505ZM186.153 145.118H192.839V110.006H186.153V145.118ZM153.408 126.854C155.26 125.192 156.328 122.828 156.358 120.341C156.354 118.099 155.49 115.946 153.944 114.323C152.371 112.569 149.525 111.585 145.709 111.585H134.273V145.118H149.045C154.699 145.031 159.271 140.754 159.271 135.515C159.262 131.701 157.919 128.976 153.408 126.854ZM147.807 139.277H141.409V117.367H145.867C147.869 117.46 149.442 119.124 149.421 121.128C149.421 123.09 147.828 124.679 145.867 124.675H143.547V130.701H147.807C153.547 130.701 153.547 139.305 147.807 139.305V139.277ZM75.3119 121.513C75.2877 118.866 74.2117 116.335 72.3177 114.479C70.4299 112.624 67.8762 111.595 65.2271 111.62H52.9902V145.118H60.105V117.367H63.7892C66.2874 117.281 68.3733 119.259 68.4142 121.759C68.3041 124.261 66.2014 126.216 63.6948 126.137H62.0431V134.154L69.1221 145.118H77.4597L67.6277 131.128C72.1058 130.086 75.2836 126.109 75.3119 121.513ZM87.7553 123.479C81.6862 123.643 76.8535 128.608 76.8535 134.675C76.8535 140.747 81.6862 145.711 87.7553 145.876C92.4202 145.876 96.0551 143.765 97.9355 140.465L92.4988 137.952C91.7122 139.543 90.0762 140.533 88.3069 140.492C85.8854 140.598 83.8424 138.715 83.7522 136.293V136.063H98.4914C98.5365 135.616 98.5564 135.172 98.5522 134.72C98.656 127.452 93.8674 123.479 87.7553 123.479ZM83.7281 132.25C83.6253 129.923 85.4858 127.981 87.8161 127.981C90.1423 127.981 92.0017 129.923 91.901 132.25H83.7281ZM125.141 145.118V110.006H118.447V126.624C116.668 124.83 114.247 123.816 111.72 123.802C106.214 123.802 101.716 128.703 101.716 134.744C101.716 140.783 106.201 145.732 111.72 145.732C114.273 145.711 116.706 144.662 118.478 142.831V145.19L125.141 145.118ZM113.618 139.988C110.914 139.988 108.709 137.583 108.709 134.617C108.709 131.652 110.914 129.214 113.618 129.214C116.325 129.214 118.533 131.623 118.533 134.593C118.533 137.567 116.334 139.988 113.618 139.988Z" fill="white"/>
</g>
<defs>
<clipPath id="clip0_280_1892">
<rect width="152.782" height="37" fill="white" transform="translate(52 109)"/>
</clipPath>
</defs>
</svg>
