<svg width="256" height="256" viewBox="0 0 256 256" fill="none" xmlns="http://www.w3.org/2000/svg">
<path d="M178.445 133.83L178.146 116.692H183.55V138.293H175.78L170.387 120.566H170.271L170.571 138.293H165.201V116.692H173.307L178.324 133.83H178.445Z" fill="white"/>
<path d="M80.2134 118.715L77.2237 138.52H71.3301L75.3774 116.692H85.0864L89.1152 138.52H83.2448L80.3363 118.715H80.2134Z" fill="white"/>
<path d="M102.839 138.52L99.1888 118.896H99.0705L98.9336 138.52H93.4668L93.9492 116.692H102.856L105.551 133.378H105.667L108.364 116.692H117.266L117.739 138.52H112.284L112.14 118.896H112.027L108.378 138.52H102.839Z" fill="white"/>
<path d="M62.1358 132.363C62.3492 132.892 62.2842 133.572 62.1845 133.982C62.0013 134.708 61.5096 135.448 60.0576 135.448C58.6892 135.448 57.8588 134.664 57.8588 133.465V131.352H52.0046L52 133.043C52 137.909 55.8317 139.377 59.937 139.377C63.8846 139.377 67.1364 138.027 67.6536 134.391C67.9181 132.505 67.7209 131.271 67.6304 130.805C66.7096 126.236 58.4247 124.872 57.8078 122.316C57.7034 121.877 57.7336 121.413 57.7846 121.165C57.9353 120.469 58.4131 119.702 59.7793 119.702C61.0549 119.702 61.8087 120.49 61.8087 121.683C61.8087 122.084 61.8087 123.03 61.8087 123.03H67.2524V121.497C67.2524 116.742 62.9847 116 59.8929 116C56.0102 116 52.8373 117.283 52.2575 120.836C52.0997 121.817 52.0765 122.691 52.3062 123.786C53.2594 128.246 61.0132 129.538 62.1358 132.363Z" fill="white"/>
<path d="M133.115 132.322C133.33 132.847 133.261 133.508 133.163 133.918C132.985 134.642 132.498 135.37 131.055 135.37C129.705 135.37 128.882 134.586 128.882 133.415L128.877 131.32H123.083L123.076 132.988C123.076 137.806 126.873 139.26 130.937 139.26C134.842 139.26 138.064 137.928 138.572 134.324C138.837 132.452 138.649 131.235 138.554 130.778C137.637 126.25 129.436 124.9 128.826 122.37C128.722 121.934 128.752 121.475 128.805 121.24C128.96 120.54 129.429 119.791 130.781 119.791C132.045 119.791 132.783 120.561 132.783 121.744C132.783 122.14 132.783 123.077 132.783 123.077H138.185V121.56C138.185 116.857 133.952 116.119 130.89 116.119C127.052 116.119 123.904 117.386 123.336 120.913C123.178 121.881 123.162 122.739 123.387 123.829C124.326 128.243 132.004 129.525 133.115 132.322Z" fill="white"/>
<path d="M151.452 135.255C152.966 135.255 153.439 134.207 153.544 133.671C153.588 133.434 153.599 133.119 153.595 132.836V116.684H159.115V132.342C159.127 132.743 159.087 133.569 159.069 133.775C158.681 137.85 155.46 139.173 151.449 139.173C147.434 139.173 144.21 137.85 143.828 133.775C143.809 133.569 143.77 132.743 143.781 132.342V116.684H149.297V132.836C149.297 133.119 149.306 133.437 149.348 133.671C149.466 134.207 149.925 135.255 151.452 135.255Z" fill="white"/>
<path d="M196.985 135.026C198.567 135.026 199.119 134.026 199.221 133.444C199.261 133.193 199.272 132.89 199.27 132.614V129.445H197.029V126.258H204.769V132.117C204.764 132.525 204.755 132.827 204.69 133.555C204.326 137.526 200.882 138.943 197.013 138.943C193.137 138.943 189.698 137.526 189.329 133.555C189.266 132.827 189.257 132.525 189.25 132.117L189.255 122.925C189.255 122.538 189.303 121.851 189.345 121.487C189.83 117.408 193.137 116.095 197.013 116.095C200.884 116.095 204.273 117.401 204.674 121.487C204.746 122.183 204.723 122.925 204.723 122.925V123.654H199.219V122.431C199.223 122.434 199.212 121.912 199.147 121.601C199.054 121.119 198.634 120.01 196.971 120.01C195.38 120.01 194.914 121.058 194.798 121.601C194.731 121.889 194.705 122.278 194.705 122.631V132.614C194.701 132.89 194.717 133.193 194.761 133.444C194.856 134.028 195.406 135.026 196.985 135.026Z" fill="white"/>
</svg>
