<svg width="256" height="256" viewBox="0 0 256 256" fill="none" xmlns="http://www.w3.org/2000/svg"><g clip-path="url(#clip0_280_1901)"><path d="M45.3488 132.63V134.931C45.3488 136.184 45.4627 136.639 45.5994 136.936C46.0095 137.824 46.7385 137.915 47.422 137.915C47.8548 137.915 48.5838 137.87 49.0395 137.414C49.404 136.981 49.4495 136.161 49.4495 135.705V134.019C49.4495 132.994 49.085 132.015 48.1282 131.126L43.8452 127.185C43.1845 126.57 42.5922 125.977 42.1365 125.18C41.4986 124.109 41.2936 123.038 41.2936 121.877V119.826C41.2936 118.619 41.8859 117.411 42.6833 116.637C44.1413 115.293 46.5562 115.179 47.4675 115.179C48.9256 115.179 50.6798 115.407 52.0467 116.705C53.3908 118.026 53.5047 119.621 53.5047 120.624V123.221H49.3356V121.102C49.3356 120.51 49.3812 119.94 48.8572 119.348C48.4927 118.938 48.0143 118.755 47.422 118.755C46.9207 118.755 46.2601 118.892 45.8956 119.257C45.4855 119.667 45.4627 120.145 45.4627 120.601V121.763C45.4627 122.674 45.7133 123.152 46.4879 123.859L50.7709 127.777C52.1606 129.053 53.6186 130.488 53.6186 133.199V136.115C53.6186 137.323 53.482 138.758 52.1606 140.034C50.8165 141.355 49.1989 141.492 47.6726 141.492C46.3284 141.492 44.7792 141.264 43.3895 140.33C41.4759 139.031 41.1797 137.095 41.1797 135.819V132.63H45.3488Z" fill="white"/><path d="M59.587 141.15V119.143H55.0762V115.543H68.1758V119.12H63.7561V141.127H59.587V141.15Z" fill="white"/><path d="M70.3633 115.543H81.048V119.12H74.5324V125.271H79.59V128.848H74.5324V137.55H81.5948V141.127H70.3633V115.543Z" fill="white"/><path d="M87.0389 141.15L82.8242 115.543H87.2211L89.5221 133.245L91.8231 115.543H96.22L92.0054 141.15H87.0389Z" fill="white"/><path d="M98.3848 115.543H109.07V119.12H102.554V125.271H107.611V128.848H102.554V137.55H109.616V141.127H98.3848V115.543Z" fill="white"/><path d="M127.637 141.15L124.629 121.876H124.447L124.675 125.271V141.15H120.506V115.543H127.09L129.528 132.083H129.664L132.125 115.543H138.709V141.15H134.54V125.271L134.767 121.876H134.585L131.578 141.15H127.637Z" fill="white"/><path d="M151.126 141.15L150.397 136.434H145.931L145.202 141.15H140.896L145.59 115.543H150.716L155.431 141.15H151.126ZM149.918 132.857L148.209 122.651H148.141L146.433 132.857H149.918Z" fill="white"/><path d="M157.596 115.543H165.455C166.253 115.543 167.734 115.611 168.941 116.796C170.331 118.14 170.331 119.803 170.331 121.33V134.999C170.331 136.502 170.217 138.507 168.645 139.942C167.483 141.036 166.093 141.15 165.068 141.15H157.596V115.543ZM163.815 137.687C164.84 137.687 165.501 137.209 165.752 136.799C166.116 136.297 166.162 135.09 166.162 134.498V121.99C166.162 121.33 166.207 120.464 165.729 119.826C165.25 119.211 164.635 119.12 164.02 119.12H161.788V137.664H163.815V137.687Z" fill="white"/><path d="M172.768 115.543H180.627C181.425 115.543 182.906 115.611 184.113 116.796C185.503 118.14 185.503 119.803 185.503 121.33V134.999C185.503 136.502 185.389 138.507 183.817 139.942C182.655 141.036 181.265 141.15 180.24 141.15H172.79V115.543H172.768ZM178.987 137.687C180.012 137.687 180.673 137.209 180.924 136.799C181.288 136.297 181.334 135.09 181.334 134.498V121.99C181.334 121.33 181.379 120.464 180.901 119.826C180.422 119.211 179.807 119.12 179.192 119.12H176.959V137.664H178.987V137.687Z" fill="white"/><path d="M187.941 115.543H198.626V119.12H192.111V125.271H197.168V128.848H192.111V137.55H199.173V141.127H187.941V115.543Z" fill="white"/><path d="M209.858 141.15L205.506 126.045L205.37 126.091L205.552 128.984V141.173H201.383V115.543H205.985L210.268 129.987H210.382L210.154 127.276V115.543H214.323V141.15H209.858Z" fill="white"/></g><defs><clipPath id="clip0_280_1901"><rect width="173.501" height="26.6714" fill="white" transform="translate(41 115)"/></clipPath></defs></svg>