<svg width="256" height="256" viewBox="0 0 256 256" fill="none" xmlns="http://www.w3.org/2000/svg"><path d="M97.6299 110.137C88.9938 110.199 81.9297 119.797 81.9297 128.169C81.9297 136.979 87.1079 147.726 97.6299 147.691C108.152 147.656 113.613 136.086 113.613 128.169C113.613 119.424 106.266 110.075 97.6299 110.137ZM97.6299 110.465C104.858 110.465 106.808 118.448 106.808 128.169C106.808 140.996 104.456 147.324 97.6299 147.311C90.804 147.299 88.5834 142.12 88.5834 128.169C88.5834 119.43 90.4018 110.465 97.6299 110.465Z" fill="white"/><path d="M116.465 128.405C116.426 118.879 124.05 110.441 130.504 110.022C132.836 109.857 135.832 110.925 137.582 111.685C138.852 112.237 141.445 111.438 141.906 109.972H142.157V122.948H141.906C141.906 122.395 139.503 110.349 130.504 110.349C123.858 110.349 123.216 122.036 123.216 128.405C123.216 134.775 123.409 147.385 131.166 147.385C134.923 147.385 137.704 145.741 138.425 142.415V132.303H135.271V131.873H147.496V132.303H144.481V147.087H144.235C144.235 147.087 143.745 144.954 141.258 144.961C138.079 144.97 135.08 147.732 131.426 147.698C121.76 147.61 116.504 137.931 116.465 128.405Z" fill="white"/><path d="M58.2185 111.415H54.4121V110.987H67.746V111.415H64.4008L73.9283 137.289C76.9075 128.116 79.2155 121.336 82.3214 111.415H79.0126V110.987H86.053V111.415H82.8469L71.2673 147.514L58.2185 111.415Z" fill="white"/><path d="M149.361 138.676L149.301 111.374H145.678V110.965H159.026V111.374H155.405L155.485 141.309C156.287 144.737 157.712 147.338 162.581 147.377C167.45 147.415 170.76 144.496 171.99 140.507V111.374H167.846L167.846 110.977H201.769L201.84 124.083H201.514C200.884 115.621 197.619 112.423 191.909 111.49C189.944 111.169 187.882 111.407 185.276 111.386V128.113C187.546 128.289 189.963 128.145 191.592 126.746C193.073 125.474 193.492 122.534 193.601 121.34H193.888V135.904H193.577C193.488 135.904 193.369 132.249 191.592 130.515C189.804 128.77 187.527 128.341 185.276 128.757V146.625C188.455 146.625 190.989 146.894 193.189 146.291C199.878 144.457 202.232 138.814 202.214 133.155H202.586V147.048H175.978V146.625H178.986V111.374H172.486V140.507C171.749 143.295 169.056 147.906 162.155 147.875C155.739 147.845 149.375 144.953 149.361 138.676Z" fill="white"/></svg>